<?xml version="1.0" standalone="no"?>
<!DOCTYPE svg PUBLIC "-//W3C//DTD SVG 20010904//EN"
 "http://www.w3.org/TR/2001/REC-SVG-20010904/DTD/svg10.dtd">
<svg version="1.0" xmlns="http://www.w3.org/2000/svg"
 width="460.000000pt" height="460.000000pt" viewBox="0 0 460.000000 460.000000"
 preserveAspectRatio="xMidYMid meet">
<metadata>
Created by potrace 1.14, written by Peter Selinger 2001-2017
</metadata>
<g transform="translate(0.000000,460.000000) scale(0.100000,-0.100000)"
fill="#000000" stroke="none">
<path d="M2030 4570 c-16 -23 -20 -38 -15 -58 15 -54 17 -168 4 -220 -19 -82
-90 -138 -139 -112 -11 6 -20 17 -20 25 0 8 -4 15 -10 15 -5 0 -10 -7 -10 -15
0 -8 -7 -32 -16 -54 -11 -28 -20 -38 -31 -34 -8 3 -27 -3 -41 -14 -15 -11 -37
-23 -48 -27 -12 -3 -31 -26 -44 -51 -12 -24 -31 -53 -42 -65 -24 -25 -28 -116
-15 -350 4 -91 8 -198 7 -238 -1 -69 0 -72 25 -82 14 -6 37 -10 49 -10 36 0
48 -24 53 -103 2 -39 8 -73 13 -75 6 -2 10 -8 10 -13 0 -6 -4 -7 -10 -4 -5 3
-10 1 -10 -4 0 -6 -9 -11 -20 -11 -20 0 -24 10 -34 75 -2 17 -3 6 -2 -23 2
-29 6 -56 10 -59 4 -4 38 -8 77 -9 39 -1 71 -4 73 -5 1 -2 21 -40 43 -84 37
-75 42 -80 82 -90 46 -11 63 -29 55 -61 -4 -15 2 -26 20 -38 14 -9 26 -12 26
-6 0 5 4 10 8 10 13 0 9 -103 -4 -107 -6 -2 -15 7 -22 21 -10 23 -83 56 -124
56 -28 0 -78 -41 -78 -64 0 -18 1 -19 13 -2 12 16 13 16 32 -2 11 -10 41 -28
68 -41 40 -19 47 -27 47 -52 0 -16 5 -29 12 -29 6 0 8 3 5 7 -10 10 13 33 33
33 22 0 34 -44 24 -84 -7 -28 -24 -36 -24 -11 0 27 -28 16 -38 -15 -7 -19 -7
-41 -1 -62 13 -47 12 -55 -13 -78 -22 -20 -22 -22 -5 -34 23 -18 21 -30 -8
-46 -23 -12 -23 -14 -7 -26 9 -7 14 -14 10 -15 -5 -1 -12 -3 -18 -4 -5 -1 -29
-3 -52 -4 -23 0 -39 -4 -35 -7 3 -3 55 -5 115 -5 60 1 116 -1 123 -4 10 -4 13
-17 11 -46 -4 -38 -6 -40 -31 -34 -34 9 -39 14 -21 25 13 9 13 10 0 11 -28 4
-35 5 -70 16 -19 6 -84 14 -144 17 -116 6 -152 19 -120 43 32 24 4 34 -59 22
-32 -7 -60 -9 -64 -6 -8 9 -25 415 -21 501 2 43 9 71 16 74 18 6 14 53 -5 68
-20 14 -30 117 -32 316 -1 105 -1 107 -32 137 -44 45 -49 43 -63 -21 -8 -35
-21 -35 -69 -2 -31 20 -41 23 -53 13 -8 -6 -37 -11 -65 -10 -39 0 -56 6 -70
22 -11 12 -19 25 -19 28 0 11 99 91 113 91 32 0 79 78 79 130 0 19 9 29 41 45
23 11 41 26 39 33 -1 7 7 30 18 52 11 21 20 56 20 76 0 56 -56 144 -91 144
-10 0 -21 5 -24 10 -11 18 -84 10 -141 -16 -49 -23 -59 -31 -81 -80 -18 -40
-30 -54 -46 -55 -12 -1 -29 -2 -37 -3 -8 -1 -21 -5 -28 -9 -8 -5 -27 3 -53 24
-46 36 -88 42 -117 16 -10 -9 -22 -17 -25 -17 -13 0 -7 27 8 40 8 7 15 21 15
31 0 10 12 26 28 36 55 34 76 67 50 75 -9 3 -4 16 15 41 27 36 44 42 59 22 5
-6 8 -5 8 3 0 10 12 12 48 6 l47 -7 -22 25 c-13 13 -23 30 -23 36 0 7 -4 12
-9 12 -5 0 -8 6 -7 13 2 15 43 58 53 56 42 -7 43 19 2 66 -24 27 -37 34 -53
29 -35 -10 -95 -55 -151 -113 -76 -80 -307 -350 -338 -396 l-27 -40 29 -28
c22 -23 44 -32 107 -42 76 -14 104 -9 90 14 -4 6 -14 11 -22 11 -18 0 -17 10
2 35 14 19 15 19 48 1 19 -10 39 -15 45 -12 19 12 56 -22 56 -52 0 -25 3 -27
38 -27 23 0 37 -5 37 -12 0 -7 -4 -13 -10 -13 -5 0 -10 -7 -10 -15 0 -9 -12
-34 -26 -56 -21 -34 -29 -40 -47 -34 -53 16 -52 17 -52 -92 0 -55 -2 -100 -5
-98 -3 2 -5 -81 -5 -183 0 -213 -6 -260 -38 -284 -12 -10 -17 -18 -10 -18 6 0
15 5 18 10 3 6 17 10 30 10 13 0 27 5 31 11 7 12 98 7 143 -7 21 -6 23 -5 19
14 -5 19 -2 22 25 24 70 4 82 -1 131 -53 35 -38 54 -68 66 -110 10 -32 16 -59
15 -61 -2 -2 -5 -19 -6 -38 -2 -19 -8 -38 -14 -42 -6 -5 -6 -11 3 -20 16 -16
15 -28 -3 -28 -9 0 -20 -12 -26 -27 -21 -56 -136 -143 -189 -143 -10 0 -32 12
-49 26 -46 38 -58 24 -17 -19 43 -45 46 -67 11 -67 -21 0 -26 -6 -32 -42 l-7
-43 -9 35 c-4 19 -8 44 -8 54 0 23 -14 10 -24 -21 -5 -19 -3 -22 10 -16 18 6
18 -12 -1 -122 -6 -35 -5 -38 9 -27 14 12 15 6 11 -52 -3 -39 -1 -67 6 -71 5
-3 10 -40 10 -81 0 -58 3 -73 13 -68 9 6 9 4 -1 -8 -9 -11 -10 -23 -2 -42 14
-37 12 -128 -3 -146 -7 -9 -56 -46 -109 -83 -54 -38 -98 -71 -98 -75 0 -5 22
-58 50 -120 27 -62 52 -128 56 -148 9 -49 38 -66 113 -63 53 2 64 -1 77 -19
30 -43 103 -15 76 29 -16 25 -15 45 4 74 15 23 15 29 -2 75 -23 65 -13 77 47
56 53 -19 123 -21 137 -3 5 6 15 37 22 69 11 50 10 66 -8 145 -12 48 -26 127
-32 176 -6 48 -15 98 -20 111 -5 13 -6 27 -3 30 13 12 31 5 36 -14 4 -16 9
-18 28 -11 18 6 27 4 36 -8 11 -14 14 -14 23 -1 9 13 12 12 25 -4 8 -11 15
-16 15 -12 0 5 7 3 15 -4 17 -14 20 -56 5 -65 -10 -6 -3 -64 10 -78 4 -5 5
-36 3 -70 -4 -55 -3 -64 17 -77 53 -36 57 -41 28 -34 -20 4 -27 1 -32 -13 -9
-29 2 -211 15 -234 8 -15 8 -24 0 -32 -18 -18 -13 -88 6 -102 17 -13 17 -14 0
-32 -21 -24 -22 -76 -2 -97 18 -17 20 -42 4 -52 -7 -4 -8 -20 -4 -43 10 -54
15 -157 14 -263 -1 -112 1 -124 26 -148 15 -14 36 -23 54 -22 16 0 35 -6 42
-14 7 -8 32 -24 55 -35 47 -21 49 -26 58 -123 3 -32 7 -61 10 -64 4 -3 22 -6
40 -6 31 -1 35 -5 41 -34 3 -17 10 -32 16 -32 6 0 8 -4 5 -9 -3 -5 1 -12 10
-15 22 -8 24 -8 24 9 0 14 29 35 49 35 6 0 11 -6 11 -13 0 -8 9 -22 20 -32 17
-15 21 -16 34 -2 8 8 12 17 9 21 -4 3 -2 6 4 6 6 0 16 -14 22 -31 12 -35 31
-34 42 2 21 76 29 109 34 151 5 38 10 47 30 52 13 3 31 13 39 22 18 17 22 79
6 89 -5 3 -10 15 -10 25 0 10 -6 20 -12 23 -10 3 -9 13 5 41 9 20 17 57 17 81
l0 44 48 6 c105 14 122 17 122 25 0 5 -4 11 -9 14 -8 6 -7 86 3 198 5 47 3 73
-6 88 -11 17 -11 22 2 30 18 11 82 2 92 -13 4 -6 7 -114 8 -240 l1 -230 49
-55 49 -55 -6 -83 -6 -83 29 -11 c40 -16 45 -27 38 -91 -6 -55 -6 -56 20 -63
15 -4 31 -4 36 -1 5 3 37 -1 72 -9 37 -9 64 -11 66 -5 6 15 22 10 22 -6 0 -8
-11 -22 -24 -30 -25 -17 -26 -58 -1 -49 9 4 11 -3 7 -22 -3 -19 -1 -25 7 -20
6 4 11 15 11 25 0 10 6 24 13 30 11 9 46 102 64 169 2 8 12 16 22 19 39 10
119 161 105 198 -4 10 3 18 22 25 76 28 102 45 193 132 13 13 35 50 51 83 27
59 27 63 25 235 -2 108 1 180 7 188 6 6 13 82 16 167 4 135 3 155 -10 155 -30
0 46 66 91 79 24 7 53 23 65 35 26 28 59 46 84 46 11 0 25 7 32 15 7 9 20 13
27 10 12 -4 14 6 11 57 -1 35 1 195 6 356 8 272 10 295 28 312 16 15 18 22 8
40 -6 11 -11 31 -10 43 1 12 1 25 0 30 -1 4 -3 13 -4 20 0 6 -7 12 -13 11 -43
-3 -42 -3 -36 -54 6 -48 5 -50 -18 -50 -57 1 -149 52 -149 83 0 8 -4 17 -9 19
-6 2 -12 16 -15 31 -3 16 -10 35 -16 42 -7 8 -8 20 -4 26 5 9 2 10 -10 6 -24
-9 -73 21 -80 49 -10 37 -32 36 -33 -1 -1 -29 3 -34 29 -39 26 -5 30 -10 26
-31 -6 -26 6 -43 17 -25 15 24 34 8 41 -35 3 -25 10 -45 15 -45 5 0 9 -7 9
-15 0 -8 5 -15 10 -15 6 0 10 -8 10 -17 -1 -27 -59 41 -66 77 -4 19 -11 27
-23 25 -9 -1 -21 2 -28 7 -7 6 -18 6 -29 0 -11 -6 -13 -11 -5 -16 6 -4 11 -16
11 -27 0 -11 7 -19 16 -19 27 0 11 -33 -21 -42 -20 -5 -36 -3 -52 7 -17 11
-21 12 -17 2 5 -13 90 -45 134 -49 36 -4 40 -44 6 -59 -41 -19 -41 -39 -1 -39
33 0 35 -2 35 -34 0 -41 7 -47 73 -55 36 -4 51 -11 53 -23 1 -11 -7 -19 -27
-23 -16 -4 -31 -6 -35 -5 -3 1 -25 -25 -49 -57 -23 -32 -57 -71 -74 -87 -17
-17 -31 -36 -31 -43 0 -7 -3 -13 -7 -13 -5 0 -19 -17 -33 -37 -14 -20 -30 -41
-35 -47 -6 -6 -18 -22 -27 -35 l-17 -24 -12 27 c-10 20 -10 29 -1 38 16 16 15
95 0 101 -9 3 -7 9 6 19 15 12 18 22 13 46 -6 27 -4 32 13 32 13 0 18 5 14 15
-4 8 -2 15 3 15 5 0 10 14 11 32 2 18 4 34 6 36 7 6 50 -22 65 -41 20 -28 27
-9 23 60 -3 53 -7 63 -25 69 -35 11 -88 6 -115 -12 -13 -9 -22 -11 -18 -6 8
13 -25 25 -45 17 -8 -3 -23 1 -34 9 -17 12 -21 31 -27 123 -9 158 -47 353 -69
353 -3 0 -18 12 -33 26 -24 24 -26 34 -26 105 0 90 1 89 -85 61 -49 -17 -50
-18 -50 -57 -1 -22 -2 -60 -3 -84 l-2 -43 -34 6 c-25 5 -44 0 -77 -19 -55 -31
-57 -31 -70 3 -12 28 -13 27 -24 -23 -6 -26 -8 -28 -17 -12 -5 10 -6 26 -2 35
4 9 6 29 5 44 -2 22 2 27 26 30 24 3 28 8 31 38 4 40 25 68 55 72 16 2 32 23
56 71 l34 67 63 0 c75 0 112 15 120 47 9 34 19 19 16 -25 -4 -56 7 -67 54 -52
71 23 69 20 69 111 0 46 -7 104 -14 129 -20 64 -7 152 25 187 15 16 23 35 21
45 -3 10 -1 21 4 24 5 3 9 18 9 34 0 16 5 32 11 36 6 3 9 15 6 25 -4 15 0 19
24 19 30 0 36 -9 19 -26 -22 -22 44 -124 80 -124 9 0 30 -12 46 -26 16 -14 41
-32 56 -39 32 -18 36 -30 40 -115 3 -72 -4 -90 -33 -90 -18 0 -19 -7 -15 -157
2 -116 -1 -167 -11 -192 -7 -18 -13 -43 -13 -55 0 -11 -7 -30 -16 -41 -12 -16
-18 -18 -34 -7 -27 16 -26 -3 1 -22 17 -11 20 -20 14 -45 -7 -34 1 -71 17 -71
6 0 7 7 3 18 -15 35 -17 52 -7 52 6 0 13 -8 15 -17 4 -15 5 -15 6 2 0 11 -3
26 -8 34 -6 9 -3 21 10 34 10 12 19 32 19 46 0 36 11 71 21 71 5 0 9 -7 9 -15
0 -44 72 -18 111 39 26 38 39 45 39 21 0 -8 -4 -15 -10 -15 -18 0 -11 -18 10
-25 11 -3 20 -15 20 -25 0 -10 9 -22 20 -25 22 -7 27 -21 9 -27 -15 -5 -2 -31
22 -46 24 -15 37 -9 22 10 -7 8 -13 135 -17 318 -4 168 -9 315 -11 325 -2 11
-4 28 -4 38 -1 9 -7 17 -14 17 -20 0 -37 -46 -31 -80 4 -18 1 -36 -6 -45 -10
-13 -17 -10 -46 17 -19 18 -34 36 -34 40 0 10 138 128 151 128 6 0 6 -6 -1
-19 -17 -32 -12 -38 29 -37 51 2 60 11 33 36 -12 12 -22 27 -22 34 0 7 -11 30
-25 50 -14 20 -25 43 -25 51 0 8 -4 15 -10 15 -5 0 -10 9 -10 20 0 24 6 25 27
5 14 -14 18 -14 43 2 49 31 80 57 80 67 0 5 10 17 21 27 21 18 22 18 50 -2 16
-11 29 -24 29 -28 0 -3 14 -15 31 -25 18 -10 44 -33 60 -50 l28 -31 35 34 c20
19 36 40 35 45 -1 10 -147 149 -277 263 -26 23 -50 45 -53 50 -32 40 -116 123
-126 123 -22 0 -42 41 -36 76 3 19 1 34 -4 34 -5 0 -22 25 -37 55 -16 30 -37
63 -48 74 -10 11 -18 25 -18 30 0 24 -76 33 -241 29 -201 -5 -191 0 -263 -143
l-48 -95 23 -47 c19 -39 65 -116 101 -167 9 -13 179 -8 195 6 9 7 13 7 13 0 0
-6 14 -12 32 -14 17 -2 33 -9 36 -15 3 -10 -29 -13 -139 -13 -121 0 -145 3
-162 18 -19 16 -20 16 -14 0 9 -25 -10 -23 -23 2 -7 14 -7 20 0 20 26 0 7 36
-52 101 -10 10 -18 34 -18 52 0 23 -8 41 -26 57 -17 17 -23 31 -20 46 3 12 -1
35 -9 50 -8 16 -15 22 -15 14 0 -11 -5 -10 -18 6 -16 20 -47 24 -115 15 -5 -1
-7 -18 -5 -38 l3 -38 50 -2 c28 -1 56 -2 63 -2 6 -1 12 -11 12 -23 0 -21 -4
-23 -62 -23 l-63 0 -5 -40 c-4 -31 -12 -44 -37 -60 -18 -11 -32 -23 -33 -28
-1 -19 -43 -96 -55 -101 -8 -3 -25 4 -39 15 -14 11 -26 18 -26 14 0 -3 -9 -1
-21 5 -13 7 -19 19 -17 33 3 19 9 22 46 22 63 0 75 20 67 115 -16 212 -17 289
-1 312 9 12 16 30 16 39 0 19 -39 32 -67 23 -15 -6 -14 -3 5 15 12 12 22 24
22 26 0 3 -18 5 -41 5 l-41 0 5 -37 c3 -21 8 -54 11 -73 l6 -35 -15 30 c-8 17
-14 49 -15 72 l0 42 -209 1 -209 0 -22 -30z m400 0 c0 -5 -7 -10 -16 -10 -8 0
-12 5 -9 10 3 6 10 10 16 10 5 0 9 -4 9 -10z m-308 -29 c-5 -3 -12 -27 -16
-54 -4 -26 -11 -45 -17 -42 -12 8 -12 67 1 100 9 23 13 25 26 14 8 -7 11 -15
6 -18z m428 -21 c-6 -11 -16 -18 -21 -14 -6 3 -3 12 8 20 24 18 26 17 13 -6z
m-43 -112 c-3 -8 -6 -5 -6 6 -1 11 2 17 5 13 3 -3 4 -12 1 -19z m-220 -4 c-3
-3 -12 -4 -19 -1 -8 3 -5 6 6 6 11 1 17 -2 13 -5z m-172 -64 c-3 -5 -10 -10
-16 -10 -5 0 -9 5 -9 10 0 6 7 10 16 10 8 0 12 -4 9 -10z m653 -38 c2 -7 -3
-12 -12 -12 -9 0 -16 7 -16 16 0 17 22 14 28 -4z m480 -40 c2 -7 -3 -12 -12
-12 -9 0 -16 7 -16 16 0 17 22 14 28 -4z m-2103 -12 c-3 -5 -11 -10 -16 -10
-6 0 -7 5 -4 10 3 6 11 10 16 10 6 0 7 -4 4 -10z m-50 -30 c3 -5 -1 -10 -9
-10 -9 0 -16 5 -16 10 0 6 4 10 9 10 6 0 13 -4 16 -10z m2205 -11 c0 -5 -4 -7
-10 -4 -5 3 -10 1 -10 -4 0 -6 -5 -11 -11 -11 -8 0 -8 5 1 15 14 17 30 20 30
4z m-2320 -26 c-1 -11 -50 -66 -55 -61 -6 5 38 68 48 68 4 0 7 -3 7 -7z m2250
-13 c0 -5 -9 -10 -21 -10 -11 0 -17 5 -14 10 3 6 13 10 21 10 8 0 14 -4 14
-10z m-330 -27 c0 -20 -24 -11 -28 10 -2 12 1 15 12 11 9 -3 16 -13 16 -21z
m680 -7 c0 -8 -4 -18 -10 -21 -17 -10 -11 -19 40 -55 60 -42 69 -64 41 -94
-12 -12 -21 -25 -21 -29 0 -4 -19 -26 -43 -50 -24 -23 -48 -51 -55 -62 -9 -17
-14 -18 -30 -8 -11 6 -28 10 -38 7 -15 -3 -25 8 -44 49 -14 30 -39 61 -57 73
-38 25 -33 34 16 35 41 0 123 30 122 45 0 5 8 18 17 29 24 29 42 62 42 80 0 8
5 15 10 15 6 0 10 -6 10 -14z m-1200 -36 c0 -13 -7 -20 -20 -20 -23 0 -26 10
-8 28 18 18 28 15 28 -8z m-1491 -29 c-21 -29 -39 -40 -39 -24 0 10 53 64 58
59 2 -3 -6 -18 -19 -35z m1331 29 c11 -7 12 -12 3 -21 -13 -13 -33 -4 -33 17
0 16 9 18 30 4z m250 -6 c0 -8 -4 -12 -10 -9 -5 3 -10 10 -10 16 0 5 5 9 10 9
6 0 10 -7 10 -16z m-330 -4 c0 -5 -4 -10 -10 -10 -5 0 -10 5 -10 10 0 6 5 10
10 10 6 0 10 -4 10 -10z m570 -51 c0 -32 -3 -40 -17 -37 -9 2 -16 6 -15 11 1
4 2 21 2 37 0 20 5 30 15 30 11 0 15 -11 15 -41z m140 0 c0 -48 -16 -44 -22 6
-3 24 0 35 9 35 9 0 13 -14 13 -41z m-1040 -5 c0 -13 -4 -24 -10 -24 -5 0 -10
14 -10 31 0 17 4 28 10 24 6 -3 10 -17 10 -31z m70 24 c0 -7 3 -23 6 -35 5
-17 2 -23 -10 -23 -12 0 -16 9 -16 35 0 19 5 35 10 35 6 0 10 -6 10 -12z m464
-1 c11 -8 15 -19 10 -30 -5 -14 -19 -17 -75 -17 -63 0 -69 2 -69 20 0 36 96
55 134 27z m-614 -27 c0 -16 -4 -30 -10 -30 -11 0 -14 43 -3 53 11 12 13 8 13
-23z m357 3 c3 -6 -10 -19 -26 -28 l-31 -16 0 31 c0 28 3 31 27 28 14 -2 28
-8 30 -15z m685 -25 c-13 -13 -24 5 -16 27 7 16 8 16 17 0 6 -11 6 -20 -1 -27z
m944 -5 c-7 -7 -26 7 -26 19 0 6 6 6 15 -2 9 -7 13 -15 11 -17z m-2781 7 c3
-5 -1 -10 -9 -10 -9 0 -16 5 -16 10 0 6 4 10 9 10 6 0 13 -4 16 -10z m-51 -33
c-15 -25 -94 -107 -105 -107 -5 0 0 14 13 30 12 17 25 30 28 30 3 0 17 18 29
41 15 27 27 37 33 31 6 -6 7 -16 2 -25z m1449 -37 c-18 -4 -48 -4 -65 0 -26 6
-20 8 32 8 52 0 58 -2 33 -8z m787 -25 c0 -19 -25 -52 -36 -48 -18 7 -18 18 2
37 15 15 34 21 34 11z m-720 -14 c0 -22 -177 -28 -206 -6 -17 13 -8 14 94 15
61 0 112 -4 112 -9z m1330 -48 c0 -15 -35 -16 -65 -3 -19 9 -19 9 3 16 12 3
22 13 22 20 0 11 5 10 20 -3 11 -10 20 -23 20 -30z m47 31 c15 -14 14 -16 -7
-12 -13 1 -25 9 -28 16 -5 17 16 15 35 -4z m-2897 -15 c0 -4 -7 -6 -15 -3 -8
4 -15 10 -15 15 0 4 7 6 15 3 8 -4 15 -10 15 -15z m415 -12 c-8 -13 -13 -27
-10 -30 3 -4 2 -5 -2 -2 -3 3 -12 -3 -19 -13 -12 -16 -13 -15 -14 5 0 12 10
31 22 43 29 27 42 25 23 -3z m1965 8 c0 -3 -9 -14 -21 -26 -11 -11 -18 -27
-15 -35 3 -8 1 -14 -5 -14 -16 0 -22 30 -11 56 7 14 20 24 32 24 11 0 20 -2
20 -5z m-500 -15 c0 -5 -12 -10 -27 -10 -22 0 -25 2 -13 10 20 13 40 13 40 0z
m-943 -11 c-29 -17 -9 -29 49 -29 54 0 75 -16 34 -27 -20 -5 -28 -23 -10 -23
5 0 7 -6 4 -13 -2 -7 2 -29 10 -48 7 -18 17 -80 21 -136 8 -118 1 -137 -81
-213 -54 -50 -72 -45 -23 7 32 34 24 37 -13 5 -15 -13 -22 -10 -65 27 -26 22
-59 49 -73 59 -24 20 -24 20 -22 183 2 143 4 166 19 177 10 7 27 11 38 8 30
-8 64 4 58 20 -4 11 4 14 33 14 32 -1 36 -3 21 -11z m1533 -10 c0 -5 -4 -9
-10 -9 -5 0 -10 7 -10 16 0 8 5 12 10 9 6 -3 10 -10 10 -16z m480 -13 c0 -5
-7 -3 -15 4 -8 7 -12 17 -9 22 7 10 24 -9 24 -26z m-225 -1 c-30 -24 -45 -31
-45 -19 0 11 45 43 60 44 9 0 3 -10 -15 -25z m320 -10 c11 -7 17 -17 12 -21
-8 -8 -57 33 -57 48 0 5 6 4 13 -2 6 -6 21 -17 32 -25z m-3199 -2 c-10 -10
-19 5 -10 18 6 11 8 11 12 0 2 -7 1 -15 -2 -18z m2311 5 c-3 -8 -6 -5 -6 6 -1
11 2 17 5 13 3 -3 4 -12 1 -19z m43 13 c0 -6 -4 -13 -10 -16 -5 -3 -10 1 -10
9 0 9 5 16 10 16 6 0 10 -4 10 -9z m714 -28 c3 -7 -3 -17 -12 -22 -14 -7 -18
-5 -18 7 -1 9 -5 25 -9 35 -7 17 -6 18 13 6 12 -8 24 -19 26 -26z m-1445 11
c-5 -6 -5 -14 -1 -19 7 -7 -49 3 -56 10 -10 10 11 22 37 21 20 -1 26 -4 20
-12z m54 9 c-7 -2 -19 -2 -25 0 -7 3 -2 5 12 5 14 0 19 -2 13 -5z m95 -5 c-9
-7 -18 -20 -21 -28 -3 -8 -6 -3 -6 13 -1 21 3 27 21 27 19 0 20 -2 6 -12z
m257 -15 c29 -32 32 -58 8 -72 -17 -10 -17 -10 -1 -11 10 0 25 12 35 26 13 21
14 30 5 45 -18 28 -16 29 38 29 36 0 50 -4 50 -14 0 -8 3 -21 6 -30 3 -9 2
-16 -4 -16 -5 0 -12 9 -15 21 -5 20 -32 23 -32 3 0 -5 -9 -21 -19 -36 -10 -15
-16 -33 -13 -40 4 -8 6 -7 6 4 1 24 34 41 49 26 18 -18 14 -35 -10 -53 l-23
-17 28 5 c18 3 27 0 27 -9 0 -8 -10 -14 -24 -14 -41 0 -56 -11 -56 -40 0 -16
4 -31 9 -34 4 -3 6 6 3 20 -3 16 1 30 9 35 21 13 27 11 39 -12 9 -15 8 -24 -1
-35 -9 -11 -8 -14 5 -14 10 0 16 -9 16 -24 0 -20 -4 -23 -22 -18 -22 5 -22 5
-5 -12 21 -21 21 -30 2 -46 -8 -7 -15 -18 -15 -25 0 -22 -39 -25 -45 -4 -7 21
-37 33 -65 24 -14 -4 -20 -15 -19 -33 1 -21 2 -23 6 -7 11 41 53 40 53 -1 0
-19 -6 -24 -27 -25 -25 -2 -25 -2 -5 -6 30 -6 22 -29 -9 -26 -21 2 -22 1 -6
-8 20 -12 23 -29 5 -29 -22 1 -141 116 -136 131 3 10 14 5 37 -19 18 -17 35
-32 39 -32 3 0 1 5 -6 12 -17 17 -15 26 7 33 25 8 33 29 21 61 -11 27 -26 29
-72 9 -25 -10 -24 21 1 37 15 9 17 15 8 30 -9 14 -8 21 5 34 14 14 20 15 32 4
21 -17 20 -37 -1 -49 -15 -9 -15 -10 -2 -11 20 0 39 20 39 40 0 22 -35 54 -49
45 -6 -3 -20 -8 -31 -10 -16 -3 -19 -1 -11 12 5 10 22 17 41 17 47 1 58 25 36
75 -11 22 -23 38 -28 35 -6 -4 -8 2 -6 12 2 11 15 21 33 25 17 4 31 7 32 8 1
0 14 -11 28 -26z m-495 3 c0 -13 -58 -31 -68 -21 -8 8 31 34 51 35 9 0 17 -6
17 -14z m930 -1 c0 -8 3 -15 8 -15 4 0 15 -12 26 -26 l18 -25 -23 13 c-40 22
-66 68 -39 68 6 0 10 -7 10 -15z m140 -2 c0 -13 -9 -19 -33 -20 l-32 -2 25 19
c31 24 40 25 40 3z m610 -48 c7 -14 17 -25 22 -25 4 0 8 -4 8 -10 0 -5 -7 -10
-15 -10 -8 0 -15 5 -15 10 0 6 -6 10 -13 10 -16 0 -90 74 -82 82 11 10 82 -33
95 -57z m-3063 33 c-3 -8 -6 -5 -6 6 -1 11 2 17 5 13 3 -3 4 -12 1 -19z m113
18 c0 -3 -4 -8 -10 -11 -5 -3 -10 -1 -10 4 0 6 5 11 10 11 6 0 10 -2 10 -4z
m413 -44 c-32 -43 -48 -38 -17 6 16 22 31 36 33 30 2 -5 -5 -22 -16 -36z m654
32 c3 -8 1 -20 -5 -26 -7 -7 -7 -16 1 -30 10 -15 9 -20 -2 -28 -12 -7 -12 -11
-2 -24 14 -17 41 -22 41 -8 0 4 -5 13 -12 20 -9 9 -7 13 5 18 9 3 14 10 11 15
-3 5 0 9 5 9 13 0 15 -89 3 -107 -5 -7 -28 -16 -53 -19 l-45 -6 3 88 c2 49 6
95 8 102 6 17 34 15 42 -4z m502 -41 c16 -82 15 -143 -4 -143 -8 0 -15 5 -15
11 0 7 -16 8 -45 3 -45 -6 -45 -6 -45 24 0 19 10 42 26 59 23 26 25 26 19 6
-8 -29 2 -48 18 -34 8 6 11 34 10 70 -2 81 20 84 36 4z m541 -15 c0 -10 -4
-18 -10 -18 -16 0 -32 39 -24 62 6 21 7 21 20 -3 7 -13 13 -32 14 -41z m-2402
41 c-2 -6 -8 -10 -13 -10 -5 0 -11 4 -13 10 -2 6 4 11 13 11 9 0 15 -5 13 -11z
m1623 -14 c85 -29 89 -33 89 -89 0 -31 -4 -46 -9 -38 -4 7 -6 23 -4 35 6 29
-20 51 -78 66 -38 11 -54 11 -85 0 -56 -20 -74 -39 -74 -76 0 -18 -4 -33 -10
-33 -5 0 -10 21 -10 46 l0 45 63 29 c74 35 64 33 118 15z m-1257 -21 c9 -24 7
-27 -9 -10 -17 17 -19 26 -6 26 5 0 12 -7 15 -16z m2696 13 c0 -2 -9 -14 -19
-26 -14 -16 -28 -21 -48 -19 l-28 4 27 11 c14 7 29 17 33 22 6 10 35 16 35 8z
m-1290 -32 c0 -9 -6 -12 -15 -9 -8 4 -12 10 -9 15 8 14 24 10 24 -6z m216 0
c7 -18 -13 -45 -33 -45 -17 0 -27 24 -19 45 7 20 45 19 52 0z m-396 -5 c0 -5
15 -10 33 -10 47 0 57 -15 57 -87 l0 -63 -47 -1 c-27 -1 -72 -3 -101 -5 l-53
-4 2 66 c2 73 18 99 54 90 15 -4 25 -1 29 9 6 17 26 21 26 5z m-1300 -20 c0
-5 -4 -10 -9 -10 -6 0 -13 5 -16 10 -3 6 1 10 9 10 9 0 16 -4 16 -10z m280
-10 c0 -5 -4 -10 -10 -10 -5 0 -10 5 -10 10 0 6 5 10 10 10 6 0 10 -4 10 -10z
m1737 -32 c-3 -8 -6 -5 -6 6 -1 11 2 17 5 13 3 -3 4 -12 1 -19z m-829 -127
c61 -33 153 -38 198 -10 41 25 62 24 66 -3 2 -19 10 -24 44 -26 26 -2 49 -11
59 -22 22 -25 27 -76 9 -95 -8 -8 -10 -15 -4 -17 7 -2 7 -21 0 -56 -6 -34 -6
-60 0 -71 9 -18 18 -337 9 -345 -5 -5 -237 -9 -404 -7 l-121 1 -9 38 c-6 21
-7 103 -4 192 5 104 3 170 -5 200 -18 74 -15 103 14 111 23 6 23 7 3 8 -27 1
-34 11 -26 39 5 19 12 22 59 22 43 0 56 4 61 18 6 14 22 31 31 32 1 0 10 -4
20 -9z m507 -32 c4 -12 2 -26 -3 -31 -15 -15 -52 0 -52 21 0 36 44 44 55 10z
m-1622 -49 c30 -25 60 -53 66 -62 9 -15 6 -16 -28 -13 -29 3 -43 -1 -56 -15
-38 -42 -64 -17 -44 42 12 38 12 42 -10 59 -15 12 -18 19 -10 20 11 0 11 2 1
6 -6 2 -10 9 -6 14 7 12 18 5 87 -51z m-96 -22 c-3 -8 -6 -5 -6 6 -1 11 2 17
5 13 3 -3 4 -12 1 -19z m2082 -70 c0 -7 -4 -22 -9 -33 -7 -17 -9 -15 -9 13 -1
17 4 32 9 32 6 0 10 -6 9 -12z m-101 -150 c-6 -98 -17 -118 -64 -118 -18 0
-21 4 -16 23 3 12 9 24 13 27 5 3 14 41 20 83 10 67 14 77 32 77 19 0 20 -5
15 -92z m-1612 67 c11 -27 -1 -39 -19 -21 -17 17 -15 36 4 36 5 0 12 -7 15
-15z m649 5 c3 -5 -3 -10 -15 -10 -12 0 -18 5 -15 10 3 6 10 10 15 10 5 0 12
-4 15 -10z m735 -6 c0 -2 -11 -4 -25 -4 -14 0 -25 4 -25 9 0 4 11 6 25 3 14
-2 25 -6 25 -8z m-107 -1 c-7 -2 -19 -2 -25 0 -7 3 -2 5 12 5 14 0 19 -2 13
-5z m881 -24 c-10 -16 -24 -9 -24 12 0 18 2 19 15 9 8 -7 12 -16 9 -21z m106
7 c0 -3 -4 -8 -10 -11 -5 -3 -10 -1 -10 4 0 6 5 11 10 11 6 0 10 -2 10 -4z
m-120 -66 c0 -33 -17 -49 -26 -26 -8 22 4 68 16 61 6 -3 10 -19 10 -35z
m-2225 2 c1 -17 -1 -19 -12 -11 -16 14 -17 42 -1 37 6 -2 12 -14 13 -26z
m2369 9 c9 -14 -4 -41 -20 -41 -15 0 -17 10 -8 34 7 18 20 21 28 7z m-1839
-57 c20 -15 20 -16 -4 -12 -14 2 -26 9 -29 16 -5 16 9 15 33 -4z m1691 -79 c2
-33 -11 -33 -14 0 -1 14 2 25 6 25 4 0 8 -11 8 -25z m10 -81 c-3 -9 -6 -20 -6
-25 0 -17 -18 -9 -23 10 -6 23 0 31 21 31 9 0 12 -6 8 -16z m144 -5 c0 -11 -4
-17 -10 -14 -5 3 -10 13 -10 21 0 8 5 14 10 14 6 0 10 -9 10 -21z m15 -60 c-3
-4 -12 -6 -20 -3 -8 4 -13 10 -10 15 3 4 12 6 20 3 8 -4 13 -10 10 -15z m-205
1 c0 -5 -2 -10 -4 -10 -3 0 -8 5 -11 10 -3 6 -1 10 4 10 6 0 11 -4 11 -10z
m-1350 -84 c0 -8 -4 -18 -10 -21 -5 -3 -10 3 -10 14 0 12 5 21 10 21 6 0 10
-6 10 -14z m450 4 c0 -5 -4 -10 -9 -10 -6 0 -13 5 -16 10 -3 6 1 10 9 10 9 0
16 -4 16 -10z m-60 -24 c0 -8 -4 -18 -10 -21 -5 -3 -10 3 -10 14 0 12 5 21 10
21 6 0 10 -6 10 -14z m-335 -6 c5 -8 11 -8 20 0 8 7 60 10 141 8 119 -3 129
-5 133 -23 3 -16 1 -17 -12 -7 -11 10 -46 12 -129 9 -114 -4 -142 -7 -154 -20
-11 -10 -24 2 -24 24 0 20 15 26 25 9z m-635 -14 c0 -3 -4 -8 -10 -11 -5 -3
-10 -1 -10 4 0 6 5 11 10 11 6 0 10 -2 10 -4z m726 -35 c-9 -10 -14 -25 -11
-34 4 -8 2 -18 -4 -22 -7 -4 -11 8 -11 32 0 32 4 39 21 40 20 2 20 1 5 -16z
m162 2 c-3 -14 -15 -18 -58 -20 -33 -2 -57 2 -61 9 -14 21 1 28 62 28 52 0 60
-2 57 -17z m-98 -33 c5 0 8 -9 7 -20 -1 -19 -17 -29 -17 -11 0 5 -9 11 -21 14
-12 3 -18 10 -14 17 4 6 14 9 22 6 8 -3 18 -6 23 -6z m-900 -35 c-7 -8 -9 -15
-5 -15 11 0 -25 -38 -57 -62 -43 -30 -33 -7 19 45 45 46 68 63 43 32z m1018
-26 c10 -3 10 -8 0 -22 -11 -14 -29 -18 -88 -19 -51 0 -74 3 -72 11 2 11 -16
15 -50 12 -10 -1 -18 3 -18 8 0 10 111 17 178 11 12 -1 22 4 22 12 0 9 3 9 8
2 4 -6 13 -13 20 -15z m334 9 c12 -7 30 -20 39 -28 22 -20 50 -103 37 -111 -5
-3 -7 -17 -3 -30 10 -45 -27 -69 -109 -69 -31 0 -56 -4 -56 -10 0 -12 22 -13
148 -10 87 2 94 1 90 -16 -2 -15 -17 -21 -66 -28 -34 -5 -62 -13 -62 -16 0 -4
25 -8 56 -9 31 0 60 -4 66 -7 13 -8 -51 -47 -67 -40 -7 2 -26 1 -42 -3 l-28
-8 30 -12 c16 -7 40 -9 53 -6 35 9 46 -4 20 -25 -19 -14 -43 -18 -126 -19 -81
-1 -102 1 -96 11 6 10 4 11 -7 1 -7 -7 -21 -13 -31 -13 -10 0 -18 -7 -18 -15
0 -11 -13 -15 -54 -15 -35 0 -58 -5 -66 -15 -9 -11 -12 -92 -10 -332 3 -379 3
-373 -13 -373 -35 0 -39 36 -45 403 -5 342 -4 361 13 374 11 7 31 13 45 13 36
0 60 29 67 79 4 32 10 41 25 41 11 0 22 9 25 20 3 11 13 20 23 20 14 0 20 -11
25 -42 9 -53 12 -59 30 -51 20 7 19 33 0 33 -16 0 -21 33 -16 99 3 50 -4 64
-29 51 -28 -15 -55 2 -69 42 -14 38 0 53 56 64 18 3 38 15 44 25 5 11 20 19
32 19 12 0 29 5 37 10 20 13 26 12 52 -2z m-459 -100 c-6 -29 10 -39 20 -14 7
19 75 32 89 18 7 -7 4 -14 -11 -21 -26 -15 -27 -31 -2 -31 11 0 23 -4 26 -10
4 -6 -7 -10 -25 -10 -17 0 -41 -5 -52 -11 -16 -9 -23 -8 -29 2 -6 10 -3 15 11
17 27 5 15 22 -16 22 -13 0 -29 9 -36 20 -7 11 -18 20 -25 20 -7 0 -13 6 -13
14 0 10 10 14 34 13 32 -2 34 -4 29 -29z m-60 -42 c9 -7 17 -19 17 -26 0 -9
-5 -8 -18 3 -10 10 -22 14 -25 10 -4 -3 -7 1 -7 10 0 20 9 21 33 3z m-868 -25
c-3 -6 -11 -11 -17 -11 -6 0 -6 6 2 15 14 17 26 13 15 -4z m925 0 c0 -5 -7
-11 -15 -15 -9 -3 -15 0 -15 9 0 8 7 15 15 15 8 0 15 -4 15 -9z m110 -45 c0
-8 -6 -18 -12 -22 -9 -6 -5 -10 12 -14 14 -3 26 -13 28 -21 5 -28 -104 -45
-189 -29 -38 7 -69 17 -69 22 0 4 5 8 10 8 6 0 10 7 10 15 0 17 27 20 32 4 3
-9 18 -7 56 3 29 9 52 12 54 6 7 -19 36 3 31 23 -4 14 0 19 16 19 12 0 21 -6
21 -14z m-1203 -48 c-3 -7 -5 -2 -5 12 0 14 2 19 5 13 2 -7 2 -19 0 -25z m-22
-29 c10 -15 -1 -23 -20 -15 -9 3 -13 10 -10 16 8 13 22 13 30 -1z m2280 -17
c-8 -8 -25 10 -19 20 4 6 9 5 15 -3 4 -7 6 -15 4 -17z m55 9 c0 -5 10 -12 23
-14 21 -4 21 -4 1 -6 -12 0 -27 6 -34 14 -9 10 -9 15 -1 15 6 0 11 -4 11 -9z
m-70 -46 c0 -8 -7 -15 -15 -15 -26 0 -18 20 13 29 1 1 2 -6 2 -14z m-1961 -31
c2 -2 7 -18 11 -36 l8 -33 1 38 c1 23 5 36 11 32 6 -4 8 -11 5 -16 -4 -5 6 -8
22 -8 19 1 22 3 9 6 -14 4 -16 7 -6 13 18 11 40 1 33 -16 -3 -8 1 -14 10 -14
13 0 27 -20 27 -40 0 -7 -60 -20 -105 -23 -11 0 -26 -8 -32 -16 -10 -13 -14
-14 -21 -3 -5 8 -12 13 -16 13 -3 -1 -6 1 -6 4 0 3 0 30 0 61 0 53 1 55 23 48
12 -3 24 -8 26 -10z m-439 -18 c0 -2 -9 -6 -20 -9 -11 -3 -20 -1 -20 4 0 5 9
9 20 9 11 0 20 -2 20 -4z m-54 -107 c-1 -49 -4 -80 -8 -67 -12 44 -8 158 7
158 1 0 2 -41 1 -91z m271 39 c-3 -8 -6 -5 -6 6 -1 11 2 17 5 13 3 -3 4 -12 1
-19z m127 -4 c11 -4 14 -13 10 -29 -4 -16 0 -26 13 -34 15 -9 14 -10 -12 -8
-35 2 -43 -25 -10 -31 11 -2 25 -9 30 -14 7 -7 -6 -8 -40 -4 -41 5 -46 4 -27
-6 20 -10 30 -42 22 -73 -2 -5 -3 -17 -4 -25 -3 -28 -15 -37 -41 -32 -26 5
-32 16 -14 28 7 4 10 40 7 101 -3 90 -2 96 21 114 26 22 24 21 45 13z m1773 0
c-3 -3 -12 -4 -19 -1 -8 3 -5 6 6 6 11 1 17 -2 13 -5z m51 -22 c2 -12 -1 -22
-7 -22 -6 0 -11 4 -11 9 0 5 -3 17 -7 27 -4 12 -2 15 8 12 8 -2 15 -14 17 -26z
m-2248 8 c0 -5 -4 -10 -10 -10 -5 0 -10 5 -10 10 0 6 5 10 10 10 6 0 10 -4 10
-10z m865 -10 c-28 -12 -47 -12 -40 0 3 6 18 10 33 9 24 0 25 -1 7 -9z m143
-16 c132 -59 162 -77 162 -94 0 -24 -44 -20 -135 14 -65 24 -75 25 -130 15
-33 -7 -66 -16 -73 -22 -7 -5 -16 -7 -20 -3 -10 11 39 46 64 46 12 0 24 7 28
15 3 8 10 15 16 15 6 0 18 7 26 15 19 19 18 19 62 -1z m1251 -51 c0 -29 -2
-33 -8 -18 -7 18 -4 55 5 55 2 0 4 -17 3 -37z m-489 3 c0 -9 -17 -16 -50 -21
-27 -4 -52 -11 -56 -16 -3 -5 -17 -9 -31 -9 -14 0 -40 -7 -59 -16 -19 -9 -37
-14 -41 -11 -14 15 9 37 49 46 24 6 61 17 83 25 54 19 105 20 105 2z m-1000
-56 c0 -16 -2 -30 -4 -30 -2 0 -6 14 -8 30 -3 17 -1 30 4 30 4 0 8 -13 8 -30z
m-763 -2 c-3 -8 -6 -5 -6 6 -1 11 2 17 5 13 3 -3 4 -12 1 -19z m1810 -38 c2
-18 9 -41 16 -49 22 -26 67 -122 67 -141 0 -10 -15 -47 -33 -82 -18 -35 -39
-82 -45 -105 -7 -24 -17 -43 -22 -43 -10 0 -15 95 -11 173 3 41 -4 45 -38 21
-21 -15 -25 -15 -53 6 -16 12 -33 19 -36 15 -4 -4 -8 -48 -9 -98 0 -51 -2 -95
-2 -99 -1 -5 -13 -8 -27 -8 -23 0 -25 3 -19 29 4 21 -2 50 -24 101 -38 89 -38
106 -1 161 16 24 30 51 30 60 0 9 7 19 15 23 8 3 15 12 15 21 0 8 5 15 10 15
10 0 14 -13 10 -43 -1 -16 4 -18 46 -11 37 5 46 4 42 -7 -3 -8 -11 -14 -19
-15 -8 0 -26 -2 -41 -2 -23 -2 -28 -7 -28 -27 0 -28 6 -30 45 -15 20 8 32 6
48 -5 12 -8 25 -15 29 -15 12 0 9 119 -3 142 -9 16 -8 23 2 29 23 14 33 5 36
-31z m-1322 8 c-1 -13 -6 -31 -10 -41 -4 -10 -4 -17 1 -15 10 3 14 -5 13 -29
0 -15 -2 -15 -9 2 -5 11 -9 14 -9 8 -1 -15 -51 -18 -51 -3 0 6 4 10 10 10 5 0
12 11 16 25 3 14 12 25 19 25 8 0 11 8 8 20 -3 11 -1 20 5 20 6 0 9 -10 7 -22z
m612 10 c17 -14 4 -41 -18 -35 -11 3 -19 4 -19 4 0 -11 55 -105 74 -128 32
-38 32 -54 1 -131 -14 -34 -25 -69 -25 -77 0 -9 -7 -25 -15 -35 -19 -25 -19
-46 0 -46 27 0 16 -15 -18 -26 -19 -5 -40 -7 -48 -3 -8 4 -22 10 -32 13 -23 7
-13 26 14 26 21 0 25 20 7 38 -10 10 -10 17 -1 31 10 15 9 22 -1 30 -8 7 -19
10 -26 9 -7 -2 -15 3 -17 10 -3 7 5 12 21 12 20 0 26 5 26 23 0 21 -5 23 -51
24 -43 1 -49 -2 -44 -16 19 -46 20 -62 9 -143 -7 -57 -25 -62 -43 -13 -9 25
-18 35 -34 35 -12 0 -29 4 -37 10 -11 7 -9 11 13 19 l28 11 -35 66 c-20 36
-36 74 -36 85 0 18 18 58 31 69 8 7 35 60 43 86 5 17 2 23 -15 27 -34 9 -15
22 33 22 l43 0 -1 -72 c0 -69 1 -72 17 -57 10 9 18 19 17 23 -3 25 4 31 29 25
26 -7 26 -7 20 38 -3 25 -4 47 -2 50 9 8 80 6 92 -4z m-537 -7 c0 -6 -4 -12
-10 -16 -16 -10 22 -45 49 -45 38 0 14 -14 -28 -17 -33 -2 -39 1 -43 20 -6 36
2 67 18 67 8 0 14 -4 14 -9z m1058 -2 c-2 -6 -8 -10 -13 -10 -5 0 -11 4 -13
10 -2 6 4 11 13 11 9 0 15 -5 13 -11z m523 -75 c11 -14 10 -15 -11 -12 -13 1
-25 9 -28 16 -5 17 23 15 39 -4z m268 -6 c-7 -13 -31 -46 -53 -74 -23 -28 -50
-63 -60 -78 -10 -14 -21 -24 -24 -22 -4 5 20 40 96 140 44 58 61 72 41 34z
m-1689 -18 c0 -23 -13 -26 -29 -6 -9 11 -9 15 1 19 23 10 28 7 28 -13z m-140
-20 c0 -5 -11 -10 -25 -10 -14 0 -25 5 -25 10 0 6 11 10 25 10 14 0 25 -4 25
-10z m1455 0 c3 -5 -3 -10 -15 -10 -12 0 -18 5 -15 10 3 6 10 10 15 10 5 0 12
-4 15 -10z m123 -12 c-5 -16 -48 -24 -48 -9 0 8 17 16 43 20 5 0 7 -5 5 -11z
m224 -60 c-7 -7 -12 -8 -12 -2 0 14 12 26 19 19 2 -3 -1 -11 -7 -17z m-1802 2
c0 -5 -4 -10 -9 -10 -6 0 -13 5 -16 10 -3 6 1 10 9 10 9 0 16 -4 16 -10z m144
-69 c4 -5 3 -16 0 -25 -5 -12 -10 -14 -20 -6 -7 7 -10 18 -7 26 6 16 19 18 27
5z m1316 -42 c0 -5 -7 -9 -15 -9 -15 0 -20 12 -9 23 8 8 24 -1 24 -14z m-1456
-28 c3 -5 -1 -11 -9 -15 -9 -3 -15 0 -15 9 0 16 16 20 24 6z m1151 -1 c3 -5
-1 -10 -9 -10 -9 0 -16 5 -16 10 0 6 4 10 9 10 6 0 13 -4 16 -10z m-1165 -70
c0 -5 -6 -10 -14 -10 -8 0 -18 5 -21 10 -3 6 3 10 14 10 12 0 21 -4 21 -10z
m1580 -20 c0 -5 -4 -10 -10 -10 -5 0 -10 5 -10 10 0 6 5 10 10 10 6 0 10 -4
10 -10z m86 -48 c-12 -12 -18 8 -10 35 l8 28 4 -28 c2 -16 1 -31 -2 -35z
m-1506 38 c0 -5 -5 -10 -11 -10 -5 0 -7 5 -4 10 3 6 8 10 11 10 2 0 4 -4 4
-10z m1006 -26 c-5 -14 -9 -15 -19 -5 -9 9 -9 14 3 21 18 11 24 6 16 -16z
m294 -4 c0 -5 -2 -10 -4 -10 -3 0 -8 5 -11 10 -3 6 -1 10 4 10 6 0 11 -4 11
-10z m-875 -10 c3 -5 1 -10 -4 -10 -6 0 -11 5 -11 10 0 6 2 10 4 10 3 0 8 -4
11 -10z m-939 -57 c-11 -11 -19 6 -11 24 8 17 8 17 12 0 3 -10 2 -21 -1 -24z
m892 25 c-5 -15 -42 -22 -64 -14 -25 10 -5 26 32 26 24 0 34 -4 32 -12z m-533
-38 c3 -5 1 -10 -4 -10 -6 0 -11 5 -11 10 0 6 2 10 4 10 3 0 8 -4 11 -10z
m-365 -21 c0 -5 -4 -9 -10 -9 -5 0 -10 7 -10 16 0 8 5 12 10 9 6 -3 10 -10 10
-16z m670 -22 c0 -8 -3 -17 -7 -20 -9 -9 -34 13 -27 24 8 14 34 11 34 -4z
m-280 -27 c0 -5 -9 -10 -20 -10 -11 0 -20 5 -20 10 0 6 9 10 20 10 11 0 20 -4
20 -10z m874 -21 c-3 -5 -10 -7 -15 -3 -5 3 -7 10 -3 15 3 5 10 7 15 3 5 -3 7
-10 3 -15z m748 -65 c-4 -23 -6 -24 -14 -10 -11 19 -3 50 11 42 4 -3 6 -17 3
-32z m-1642 6 c0 -5 -2 -10 -4 -10 -3 0 -8 5 -11 10 -3 6 -1 10 4 10 6 0 11
-4 11 -10z m280 -15 c0 -17 -86 -106 -94 -97 -8 7 -8 97 -1 104 3 3 26 6 50 6
33 1 45 -3 45 -13z m460 -11 c0 -23 -3 -25 -37 -22 -26 2 -39 8 -41 20 -3 16
6 19 66 27 7 0 12 -10 12 -25z m-235 -28 c8 -12 35 -37 60 -55 50 -36 61 -71
22 -71 -28 0 -87 28 -87 40 0 5 -9 14 -20 20 -23 12 -76 -10 -98 -41 -6 -9
-25 -20 -41 -24 -34 -7 -88 -60 -72 -69 6 -4 11 -11 11 -17 0 -14 -28 -11 -33
4 -3 9 -9 7 -24 -5 -28 -26 -43 -22 -43 11 0 27 34 74 70 96 65 40 90 58 90
65 0 5 8 11 18 14 9 4 34 22 55 41 43 38 63 36 92 -9z m373 8 c13 -4 22 -14
22 -26 0 -16 -6 -19 -42 -16 -30 2 -44 8 -46 20 -3 14 6 20 38 27 3 0 15 -2
28 -5z m492 -45 c0 -43 -7 -48 -31 -21 -9 9 -26 24 -37 32 -31 21 -27 28 16
32 50 4 52 3 52 -43z m-1346 32 c3 -5 -1 -12 -10 -15 -25 -10 -34 -7 -34 9 0
16 35 21 44 6z m1114 -21 c40 -30 81 -65 143 -120 31 -28 61 -50 67 -50 7 0
12 -4 12 -9 0 -5 3 -16 6 -25 4 -11 1 -16 -10 -16 -9 0 -16 4 -16 9 0 5 -11
12 -25 15 -14 4 -25 12 -25 19 0 6 -18 22 -40 35 -22 12 -40 27 -40 32 0 6 -6
10 -12 10 -7 0 -31 14 -52 30 -22 17 -43 30 -48 30 -5 0 -28 -18 -53 -41 -32
-29 -56 -42 -85 -46 -33 -5 -40 -3 -40 11 0 9 4 16 8 16 4 0 33 24 65 54 77
74 99 81 145 46z m504 -41 c-1 -50 -7 -58 -22 -29 -9 16 -9 25 -1 33 6 6 11
20 11 31 0 10 3 17 6 13 4 -3 6 -25 6 -48z m-1632 -15 c0 -8 -5 -12 -10 -9 -6
4 -8 11 -5 16 9 14 15 11 15 -7z m730 -7 c0 -20 -4 -22 -40 -19 -23 2 -40 9
-40 16 0 20 11 26 47 26 28 0 33 -4 33 -23z m160 -37 c0 -15 -7 -20 -29 -20
-39 0 -61 9 -61 26 0 10 13 14 45 14 38 0 45 -3 45 -20z m-885 -20 c3 -5 1
-10 -4 -10 -6 0 -11 5 -11 10 0 6 2 10 4 10 3 0 8 -4 11 -10z m543 -55 c63
-59 103 -135 71 -135 -6 0 -41 27 -77 60 -37 33 -73 60 -80 60 -7 0 -37 -22
-65 -48 -124 -115 -197 -173 -208 -167 -24 15 5 63 85 140 45 44 90 92 99 107
34 54 106 47 175 -17z m192 12 c0 -21 -22 -37 -51 -37 -29 0 -55 23 -44 40 9
15 95 13 95 -3z m910 -74 c1 -12 -23 2 -35 21 -14 20 -14 28 -3 45 12 19 13
18 25 -22 7 -23 13 -43 13 -44z m-504 58 c13 -10 21 -20 19 -22 -2 -3 41 -49
96 -104 58 -57 99 -107 99 -118 0 -17 -5 -15 -40 14 -23 19 -77 69 -121 112
-45 42 -89 77 -100 77 -10 0 -48 -22 -84 -50 -70 -53 -85 -59 -85 -35 0 14 66
81 97 99 8 4 24 17 34 27 24 24 54 24 85 0z m110 -14 c4 -4 -10 -7 -32 -7 -28
0 -35 3 -24 10 16 10 45 8 56 -3z m-1246 -67 c0 -5 -4 -10 -9 -10 -6 0 -13 5
-16 10 -3 6 1 10 9 10 9 0 16 -4 16 -10z m533 -73 c32 -26 62 -47 67 -47 9 0
25 -78 17 -86 -5 -6 -26 11 -111 88 -23 21 -44 38 -47 38 -3 0 -15 -12 -25
-26 -10 -15 -23 -30 -29 -35 -110 -95 -144 -114 -160 -89 -7 11 37 59 166 183
27 27 44 36 52 29 7 -5 38 -30 70 -55z m1187 23 c0 -5 -2 -10 -4 -10 -3 0 -8
5 -11 10 -3 6 -1 10 4 10 6 0 11 -4 11 -10z m-573 -50 c29 -27 58 -48 65 -46
7 1 10 1 6 -1 -14 -8 -8 -22 26 -59 36 -40 38 -54 6 -54 -20 0 -109 83 -146
135 l-20 29 -32 -23 c-18 -12 -32 -28 -33 -34 -1 -19 -90 -80 -101 -69 -15 15
7 55 48 87 21 17 51 42 68 57 17 15 38 27 46 28 8 0 39 -23 67 -50z m-80 -66
c-3 -3 -12 -4 -19 -1 -8 3 -5 6 6 6 11 1 17 -2 13 -5z m-575 -41 c13 -16 38
-40 56 -55 19 -16 30 -28 26 -28 -4 0 1 -9 11 -20 10 -11 14 -20 9 -21 -5 0
-16 -2 -25 -4 -10 -2 -34 17 -59 46 -23 27 -47 49 -53 49 -5 0 -32 -22 -59
-50 -51 -52 -92 -65 -100 -32 -7 24 1 42 18 42 7 0 22 7 31 15 47 38 109 84
115 84 3 1 17 -11 30 -26z m610 -36 c7 -7 27 -21 43 -31 17 -11 34 -25 38 -33
10 -16 34 -17 40 0 4 9 8 8 16 -3 7 -11 5 -19 -9 -33 -18 -16 -22 -16 -50 -2
-16 9 -30 21 -30 28 0 7 -14 21 -31 31 -36 21 -75 15 -84 -14 -8 -25 -71 -64
-92 -56 -13 5 -10 12 19 39 40 37 109 87 120 87 3 0 13 -6 20 -13z m-726 -187
c1 -14 2 -55 3 -92 l1 -68 40 0 c39 0 40 1 42 38 0 20 0 63 -2 95 -2 56 -1 59
21 55 24 -3 24 -5 24 -117 l0 -114 -130 -1 c-109 -1 -130 1 -130 14 0 11 13
16 43 18 l44 3 -2 87 c-3 117 -3 114 23 110 16 -2 22 -10 23 -28z m689 -71 c0
-82 -17 -92 -29 -17 -9 62 -3 92 17 86 8 -3 12 -26 12 -69z m140 -32 l0 -92
30 -2 c17 0 36 -2 43 -2 6 -1 12 -8 12 -16 0 -8 -6 -15 -12 -16 -38 -3 -223 3
-230 7 -12 8 -10 64 3 64 6 0 13 -9 16 -20 4 -15 14 -20 38 -20 47 0 56 18 57
107 1 43 6 81 11 85 25 16 32 -6 32 -95z m-815 -182 c0 -9 -8 -18 -17 -22 -10
-3 -28 -15 -40 -26 -21 -18 -23 -19 -29 -3 -7 18 21 45 61 58 11 3 21 6 23 7
1 1 2 -6 2 -14z"/>
<path d="M1782 3783 c43 -7 71 -50 65 -98 -5 -39 -5 -39 8 -15 21 37 18 64
-10 94 -17 19 -33 26 -57 25 -30 -2 -30 -2 -6 -6z"/>
<path d="M1797 3563 c31 -6 53 -40 54 -83 l1 -35 9 30 c6 21 5 38 -3 55 -17
33 -28 40 -58 38 -23 -1 -23 -1 -3 -5z"/>
<path d="M2760 3688 c0 -3 6 -18 14 -33 9 -17 16 -22 21 -15 4 7 -2 21 -14 33
-11 12 -21 19 -21 15z"/>
<path d="M2727 3573 c-4 -3 -7 -12 -7 -20 0 -10 4 -11 19 -1 15 9 23 9 35 -1
18 -16 10 -40 -18 -51 -19 -7 -19 -9 -3 -15 36 -15 61 33 35 67 -15 19 -51 31
-61 21z"/>
<path d="M2323 3672 c22 -24 22 -60 0 -86 -18 -21 -18 -21 5 -2 12 11 22 30
22 45 -1 26 -20 61 -35 61 -5 0 -1 -8 8 -18z"/>
<path d="M2220 3669 c0 -5 5 -7 10 -4 6 3 10 8 10 11 0 2 -4 4 -10 4 -5 0 -10
-5 -10 -11z"/>
<path d="M2212 3630 c0 -14 2 -19 5 -12 2 6 2 18 0 25 -3 6 -5 1 -5 -13z"/>
<path d="M2630 2276 c0 -16 5 -26 15 -26 8 0 15 6 15 14 0 7 -7 19 -15 26 -13
11 -15 8 -15 -14z"/>
<path d="M1330 2159 c0 -5 5 -7 10 -4 6 3 10 8 10 11 0 2 -4 4 -10 4 -5 0 -10
-5 -10 -11z"/>
<path d="M1341 2014 c0 -11 3 -14 6 -6 3 7 2 16 -1 19 -3 4 -6 -2 -5 -13z"/>
<path d="M3120 4521 c0 -10 51 -22 63 -14 4 2 5 9 2 14 -8 12 -65 12 -65 0z"/>
<path d="M2861 4505 c-4 -5 -6 -35 -5 -65 2 -76 2 -77 17 -55 19 27 27 65 15
65 -5 0 -6 5 -2 11 4 7 20 9 40 6 21 -4 37 -1 44 8 6 7 22 16 35 19 14 4 25
10 25 16 0 12 -160 8 -169 -5z"/>
<path d="M1890 4220 c0 -5 6 -10 14 -10 8 0 18 5 21 10 3 6 -3 10 -14 10 -12
0 -21 -4 -21 -10z"/>
<path d="M1542 3705 c-11 -13 -9 -15 8 -15 11 0 20 7 20 15 0 19 -11 19 -28 0z"/>
<path d="M710 3488 c-11 -18 -20 -48 -20 -66 0 -26 5 -35 26 -42 38 -15 41
-13 47 23 3 17 9 51 12 75 7 41 7 42 -19 42 -19 0 -32 -9 -46 -32z"/>
<path d="M4249 3486 c0 -1 -3 -46 -6 -101 -2 -55 -5 -111 -7 -125 -2 -14 -4
-39 -4 -56 -2 -27 -9 -33 -54 -54 -58 -26 -77 -45 -77 -75 0 -18 2 -17 22 8
13 15 26 27 30 27 4 0 25 12 47 26 22 15 44 24 47 20 4 -4 7 -87 7 -184 -1
-171 -3 -266 -19 -664 l-8 -188 -35 0 -35 0 23 -20 c13 -11 30 -20 38 -20 13
0 14 -26 10 -185 -4 -136 -9 -189 -19 -202 -9 -11 -10 -14 -1 -9 6 4 12 3 12
-2 0 -13 -31 -32 -137 -88 -112 -59 -115 -61 -102 -85 5 -10 15 -19 22 -19 14
0 263 125 284 141 23 20 73 132 73 164 0 18 -7 49 -16 70 -8 20 -13 40 -10 43
4 3 32 7 64 10 31 2 63 9 69 14 25 20 48 132 58 283 3 33 7 96 10 140 6 76 9
119 22 280 24 310 22 400 -11 449 -9 14 -16 34 -16 45 0 12 -6 38 -14 58 -7
21 -23 72 -36 113 -55 186 -59 191 -157 188 -40 -1 -73 -2 -74 -2z"/>
<path d="M425 3450 c-31 -12 -42 -30 -48 -81 -6 -46 -6 -47 23 -51 28 -4 83
20 81 36 -1 3 -1 7 0 9 0 1 3 20 5 41 6 51 -13 66 -61 46z"/>
<path d="M4114 3419 c-11 -3 -26 -14 -34 -24 -12 -15 -12 -18 3 -26 21 -12 22
-29 3 -29 -19 0 -10 -33 15 -56 20 -18 70 -14 96 7 14 12 18 61 6 73 -4 4 -8
17 -8 29 0 15 -8 23 -31 27 -17 4 -39 3 -50 -1z m36 -59 c0 -5 -7 -10 -16 -10
-8 0 -12 5 -9 10 3 6 10 10 16 10 5 0 9 -4 9 -10z"/>
<path d="M3707 3380 c-16 -26 -16 -30 -2 -30 8 0 18 7 21 15 4 8 13 15 21 15
8 0 13 -6 10 -13 -6 -17 37 -17 55 1 17 17 2 29 -47 36 -37 6 -41 5 -58 -24z"/>
<path d="M3805 3330 c-10 -11 -20 -18 -23 -15 -3 3 -12 -4 -20 -16 -14 -20
-15 -20 -43 13 -31 37 -39 22 -12 -23 13 -22 25 -29 49 -29 37 0 84 34 84 60
0 28 -15 32 -35 10z"/>
<path d="M295 3300 c-16 -16 -55 -50 -85 -75 -30 -26 -65 -55 -76 -66 -12 -10
-25 -19 -28 -19 -14 0 -66 -55 -66 -70 0 -9 -4 -20 -9 -25 -9 -10 13 -224 26
-255 4 -8 8 -41 9 -72 1 -31 7 -66 13 -77 6 -11 11 -41 11 -67 0 -26 4 -61 9
-78 12 -37 29 -149 36 -226 3 -30 9 -66 14 -80 5 -14 12 -47 14 -74 3 -27 14
-61 26 -77 12 -15 21 -34 21 -41 1 -20 31 -51 75 -77 33 -19 48 -22 89 -16 50
6 82 30 67 50 -5 5 -13 51 -20 100 -7 50 -19 140 -27 200 -18 130 -37 314 -38
370 -1 58 16 549 19 553 1 2 14 0 28 -4 33 -8 38 -25 39 -119 1 -41 5 -75 9
-75 5 0 9 8 10 18 1 16 0 164 -1 188 0 6 -20 19 -44 28 -44 17 -45 19 -48 64
-2 38 -7 47 -23 49 -11 2 -33 -11 -50 -27z m-50 -660 c3 -5 1 -10 -4 -10 -6 0
-11 5 -11 10 0 6 2 10 4 10 3 0 8 -4 11 -10z m25 -161 c0 -5 -4 -9 -10 -9 -5
0 -10 7 -10 16 0 8 5 12 10 9 6 -3 10 -10 10 -16z m50 -299 c0 -5 -4 -10 -10
-10 -5 0 -10 5 -10 10 0 6 5 10 10 10 6 0 10 -4 10 -10z"/>
<path d="M558 2989 c-10 -5 -18 -18 -18 -29 0 -10 -13 -32 -30 -48 -16 -17
-30 -34 -30 -39 0 -5 -8 -18 -19 -29 -10 -11 -21 -36 -24 -55 -3 -19 -10 -56
-15 -84 -7 -38 -6 -57 4 -76 7 -15 10 -29 7 -33 -4 -4 3 -14 16 -22 15 -11 21
-23 18 -35 -3 -11 -1 -17 4 -13 5 3 9 1 9 -4 0 -5 20 -31 45 -58 25 -27 45
-58 45 -71 0 -32 14 -36 70 -22 54 14 54 15 50 89 -2 33 -10 54 -34 81 -43 50
-60 114 -54 201 6 81 29 121 73 126 16 2 39 10 51 19 19 12 22 19 13 34 -9 18
-11 18 -26 4 -22 -22 -39 -13 -35 19 2 15 -2 34 -9 42 -13 16 -85 18 -111 3z"/>
<path d="M390 2919 c0 -11 4 -18 10 -14 5 3 7 12 3 20 -7 21 -13 19 -13 -6z"/>
<path d="M1100 2875 c-8 -9 -8 -15 -2 -15 18 0 42 12 42 21 0 14 -26 10 -40
-6z"/>
<path d="M3872 2862 c-16 -10 -18 -146 -3 -185 14 -36 15 -247 1 -247 -5 0
-10 -9 -10 -20 0 -25 -29 -40 -78 -40 -24 0 -45 -6 -53 -16 -12 -15 -8 -16 36
-14 83 4 85 3 85 -32 0 -18 4 -38 8 -44 12 -18 73 -44 104 -44 20 0 28 -5 29
-17 0 -10 2 -30 4 -45 2 -18 -2 -31 -13 -37 -20 -12 -12 -21 19 -24 26 -2 68
-43 69 -67 0 -8 7 -24 15 -34 14 -19 15 -19 15 8 0 27 -37 86 -74 117 -13 11
-16 20 -10 30 13 22 12 88 -2 93 -10 4 -10 12 -1 38 14 37 26 50 45 43 8 -3
12 7 12 30 0 19 5 35 10 35 6 0 10 9 10 19 0 11 4 22 9 25 4 3 5 23 1 45 -6
36 -5 40 17 46 20 5 22 10 17 33 -4 15 -13 31 -21 35 -7 4 -13 19 -13 32 0 14
-5 25 -11 25 -6 0 -9 7 -5 15 3 8 1 15 -4 15 -13 0 -13 -37 0 -45 6 -4 8 -15
5 -26 -4 -13 -2 -19 9 -19 21 0 21 -16 0 -28 -11 -6 -17 -29 -21 -73 -5 -66
-19 -101 -21 -52 -1 29 -20 257 -29 353 -3 30 -10 61 -15 68 -12 13 -115 17
-136 4z"/>
<path d="M881 2827 c-8 -11 -5 -13 19 -9 16 2 27 8 24 13 -8 13 -30 11 -43 -4z"/>
<path d="M970 2820 c0 -5 5 -10 11 -10 5 0 7 5 4 10 -3 6 -8 10 -11 10 -2 0
-4 -4 -4 -10z"/>
<path d="M3280 2750 c0 -29 2 -51 4 -49 8 8 10 88 3 95 -4 4 -7 -17 -7 -46z"/>
<path d="M717 2784 c-4 -4 -7 -17 -7 -28 0 -28 102 -62 142 -47 35 13 34 57
-1 53 -13 -1 -29 2 -35 7 -15 12 -90 24 -99 15z"/>
<path d="M964 2739 c3 -17 6 -36 6 -41 0 -5 10 -8 23 -6 46 6 27 78 -21 78
-11 0 -13 -8 -8 -31z"/>
<path d="M3447 2763 c-12 -11 -8 -23 8 -23 8 0 15 7 15 15 0 16 -12 20 -23 8z"/>
<path d="M1195 2720 c-8 -13 4 -32 16 -25 12 8 12 35 0 35 -6 0 -13 -4 -16
-10z"/>
<path d="M3640 2641 c0 -5 7 -12 16 -15 22 -9 24 -8 24 9 0 8 -9 15 -20 15
-11 0 -20 -4 -20 -9z"/>
<path d="M1777 2633 c-4 -3 -7 -13 -7 -20 0 -12 3 -12 15 1 8 8 15 17 15 20 0
8 -15 7 -23 -1z"/>
<path d="M860 2625 c0 -2 5 -16 12 -30 15 -34 35 -32 40 5 4 27 2 30 -24 30
-15 0 -28 -2 -28 -5z"/>
<path d="M3210 2620 c0 -5 5 -10 10 -10 6 0 10 5 10 10 0 6 -4 10 -10 10 -5 0
-10 -4 -10 -10z"/>
<path d="M1750 2582 c0 -12 4 -22 9 -22 10 0 9 26 -2 36 -4 4 -7 -2 -7 -14z"/>
<path d="M3517 2583 c-12 -11 -7 -57 8 -77 14 -18 15 -16 15 32 0 48 -7 62
-23 45z"/>
<path d="M3630 2571 c-25 -3 -40 -9 -35 -12 15 -9 95 2 95 12 0 5 -3 8 -7 7
-5 0 -28 -4 -53 -7z"/>
<path d="M431 2544 c0 -11 3 -14 6 -6 3 7 2 16 -1 19 -3 4 -6 -2 -5 -13z"/>
<path d="M3600 2526 c0 -16 128 -32 143 -17 20 20 -6 31 -74 31 -51 0 -69 -3
-69 -14z"/>
<path d="M1120 2510 c0 -5 5 -10 10 -10 6 0 10 5 10 10 0 6 -4 10 -10 10 -5 0
-10 -4 -10 -10z"/>
<path d="M430 2481 c-19 -16 -32 -32 -28 -36 10 -11 72 28 76 48 5 24 -9 21
-48 -12z"/>
<path d="M1745 2501 c-5 -9 2 -80 10 -108 3 -7 11 -10 20 -6 13 5 14 7 3 14
-10 7 -10 9 2 9 13 0 13 1 0 10 -8 5 -11 10 -6 10 4 0 1 11 -8 25 -9 14 -12
25 -6 25 5 0 10 7 10 15 0 17 -16 20 -25 6z"/>
<path d="M3541 2458 c5 -10 12 -18 14 -18 3 0 5 8 5 18 0 10 -7 19 -14 19 -11
0 -13 -5 -5 -19z"/>
<path d="M3574 2468 c-3 -4 2 -8 10 -8 8 0 17 4 20 8 3 5 -2 9 -10 9 -8 0 -17
-4 -20 -9z"/>
<path d="M463 2433 c-15 -5 -18 -33 -4 -33 8 0 25 30 19 35 -2 1 -9 0 -15 -2z"/>
<path d="M427 2405 c-4 -8 -2 -17 3 -20 6 -4 10 3 10 14 0 25 -6 27 -13 6z"/>
<path d="M1830 2402 c0 -5 17 -12 38 -16 57 -9 122 -7 122 4 0 6 -28 9 -68 8
-38 -1 -74 2 -80 6 -7 4 -12 3 -12 -2z"/>
<path d="M4115 2380 c3 -5 15 -10 25 -10 10 0 22 -4 25 -10 3 -5 13 -10 21
-10 8 0 14 5 14 10 0 6 -9 10 -19 10 -11 0 -23 5 -26 10 -3 6 -15 10 -26 10
-11 0 -17 -4 -14 -10z"/>
<path d="M1740 2320 c0 -5 5 -10 10 -10 6 0 10 5 10 10 0 6 -4 10 -10 10 -5 0
-10 -4 -10 -10z"/>
<path d="M4110 2320 c0 -5 9 -10 21 -10 11 0 17 5 14 10 -3 6 -13 10 -21 10
-8 0 -14 -4 -14 -10z"/>
<path d="M4165 2300 c3 -5 13 -10 21 -10 8 0 12 5 9 10 -3 6 -13 10 -21 10 -8
0 -12 -4 -9 -10z"/>
<path d="M4120 2250 c20 -13 33 -13 25 0 -3 6 -14 10 -23 10 -15 0 -15 -2 -2
-10z"/>
<path d="M4170 2235 c7 -9 15 -13 17 -11 7 7 -7 26 -19 26 -6 0 -6 -6 2 -15z"/>
<path d="M580 2224 c0 -8 5 -12 10 -9 6 4 8 11 5 16 -9 14 -15 11 -15 -7z"/>
<path d="M4115 2190 c3 -5 10 -10 16 -10 5 0 9 5 9 10 0 6 -7 10 -16 10 -8 0
-12 -4 -9 -10z"/>
<path d="M600 2146 c0 -15 -8 -31 -20 -38 -41 -26 -15 -97 30 -83 18 6 20 12
14 51 -5 37 -3 44 11 44 26 0 15 44 -12 48 -19 3 -23 -1 -23 -22z"/>
<path d="M3910 2110 c0 -5 7 -7 15 -4 8 4 15 8 15 10 0 2 -7 4 -15 4 -8 0 -15
-4 -15 -10z"/>
<path d="M3965 2034 c29 -31 32 -54 8 -54 -14 0 -15 -2 -4 -9 14 -9 7 -31 -10
-31 -12 0 -43 32 -54 56 -8 17 -9 16 -13 -9 -5 -43 22 -77 61 -77 38 1 56 14
80 59 l17 33 -30 29 c-16 16 -41 29 -54 29 l-25 0 24 -26z"/>
<path d="M460 1950 c0 -6 7 -10 15 -10 8 0 15 2 15 4 0 2 -7 6 -15 10 -8 3
-15 1 -15 -4z"/>
<path d="M4185 1910 c-18 -8 -17 -9 8 -9 16 -1 26 3 22 9 -3 6 -7 10 -8 9 -1
0 -11 -4 -22 -9z"/>
<path d="M4134 1810 c0 -52 1 -74 3 -47 2 26 2 68 0 95 -2 26 -3 4 -3 -48z"/>
<path d="M392 1820 c-44 -32 -50 -50 -31 -97 38 -92 34 -88 159 -152 66 -34
132 -66 145 -71 23 -9 25 -7 25 23 0 32 -4 35 -106 88 -58 30 -109 61 -114 69
-8 16 -22 111 -22 148 0 29 -7 28 -56 -8z"/>
<path d="M3846 1670 c5 -5 23 -11 39 -14 17 -2 23 -1 15 1 -8 3 -19 9 -24 14
-14 13 -43 12 -30 -1z"/>
<path d="M3940 1630 c0 -5 9 -10 21 -10 11 0 17 5 14 10 -3 6 -13 10 -21 10
-8 0 -14 -4 -14 -10z"/>
<path d="M2030 136 c0 -14 40 -30 50 -20 5 6 -29 34 -42 34 -4 0 -8 -6 -8 -14z"/>
</g>
</svg>
